<?xml version="1.0" encoding="utf-8"?>
<!-- Generator: Adobe Illustrator 22.0.1, SVG Export Plug-In . SVG Version: 6.00 Build 0)  -->
<svg version="1.1" id="Capa_1" xmlns="http://www.w3.org/2000/svg" xmlns:xlink="http://www.w3.org/1999/xlink" x="0px" y="0px"
	 viewBox="0 0 720 1080" style="enable-background:new 0 0 720 1080;" xml:space="preserve">
<style type="text/css">
	.st0{fill:#1A1A1A;}
</style>
<g>
	<path class="st0" d="M149.8,636.9h27v6H144v-54.1h5.8V636.9z"/>
	<path class="st0" d="M185.2,596.7c-0.8-0.8-1.1-1.6-1.1-2.7c0-1.1,0.4-2,1.1-2.8c0.8-0.8,1.6-1.1,2.6-1.1c1.1,0,2,0.4,2.6,1.1
		c0.8,0.8,1.1,1.7,1.1,2.8c0,1.1-0.4,2-1.1,2.7c-0.8,0.8-1.6,1.1-2.6,1.1C186.8,597.8,185.9,597.4,185.2,596.7z M185,604.2h5.6V643
		H185V604.2z"/>
	<path class="st0" d="M201.1,586.7h5.7V643h-5.7V586.7z"/>
	<path class="st0" d="M217.1,596.7c-0.8-0.8-1.1-1.6-1.1-2.7c0-1.1,0.4-2,1.1-2.8c0.8-0.8,1.6-1.1,2.6-1.1c1.1,0,2,0.4,2.6,1.1
		c0.8,0.8,1.1,1.7,1.1,2.8c0,1.1-0.4,2-1.1,2.7c-0.8,0.8-1.6,1.1-2.6,1.1C218.7,597.8,217.8,597.4,217.1,596.7z M216.9,604.2h5.6
		V643h-5.6V604.2z"/>
	<path class="st0" d="M249.6,643.5c-5.3,0-9.8-2-13.6-5.8c-3.8-3.9-5.7-8.6-5.7-14c0-5.5,1.9-10.2,5.7-14c3.8-3.9,8.3-5.8,13.6-5.8
		c5.4,0,9.9,2,13.7,5.9v-5.4h5.6V643h-5.6v-5.4C259.5,641.5,254.9,643.5,249.6,643.5z M249.6,609.5c-3.8,0-7,1.4-9.6,4.2
		c-2.6,2.8-4,6-4,9.9s1.3,7.2,4,9.9c2.6,2.8,5.9,4.1,9.6,4.1s7-1.4,9.7-4.1c2.6-2.8,4-6,4-9.9s-1.3-7.2-4-9.9
		C256.6,610.9,253.4,609.5,249.6,609.5z"/>
	<path class="st0" d="M310.3,642.9h-5.6v-23.2c0-2.8-0.9-5.2-2.9-7.2c-1.9-2-4.2-3-6.9-3c-2.7,0-5,1-7,3c-2,2-2.9,4.4-2.9,7.2v23.2
		h-5.5v-38.7h5.6v3.1c2.8-2.5,6.2-3.7,9.8-3.7c4.2,0,7.9,1.6,10.9,4.7c3,3.1,4.5,6.9,4.5,11.3V642.9z"/>
	<path class="st0" d="M373.9,638c4.1,0,7.9-1.1,11.3-3.3c3.4-2.1,6-5,7.8-8.6l5.3,2.3c-2.3,4.7-5.6,8.4-9.9,11.2
		c-4.4,2.9-9.3,4.3-14.5,4.3c-3.7,0-7.2-0.8-10.6-2.2c-3.3-1.4-6.2-3.5-8.7-6c-2.5-2.6-4.5-5.6-5.9-8.9c-1.4-3.5-2.1-7.1-2.1-10.9
		s0.7-7.4,2.1-11c1.4-3.3,3.3-6.3,5.9-8.9c2.5-2.6,5.4-4.6,8.7-6c3.4-1.4,6.9-2.2,10.6-2.2c5.2,0,10.1,1.4,14.5,4.3
		c4.3,2.8,7.6,6.5,9.9,11.2l-5.3,2.3c-1.8-3.7-4.4-6.5-7.8-8.6c-3.5-2.2-7.2-3.3-11.3-3.3c-5.9,0-11,2.1-15.2,6.5
		c-4.2,4.3-6.3,9.6-6.3,15.7s2.1,11.3,6.3,15.7C362.9,635.8,368,638,373.9,638z"/>
	<path class="st0" d="M410.2,637.6c-3.8-3.9-5.7-8.6-5.7-14c0-5.5,1.9-10.1,5.7-14s8.3-5.8,13.6-5.8c5.3,0,9.8,2,13.6,5.8
		c3.8,3.9,5.7,8.6,5.7,14c0,5.5-1.9,10.2-5.7,14c-3.8,3.9-8.3,5.8-13.6,5.8C418.5,643.5,413.9,641.5,410.2,637.6z M414.2,613.6
		c-2.7,2.8-4,6-4,9.9s1.3,7.2,4,9.9c2.6,2.8,5.9,4.1,9.6,4.1c3.8,0,7-1.4,9.6-4.1c2.6-2.8,4-6.1,4-9.9c0-3.9-1.3-7.2-4-9.9
		c-2.6-2.8-5.9-4.1-9.6-4.1C420,609.5,416.8,610.9,414.2,613.6z"/>
	<path class="st0" d="M453.3,604.2v-6.7c0.1-3.6,1.4-6.6,3.9-9.1c2.5-2.5,5.5-3.8,9.1-3.8v5.8c-2,0-3.7,0.7-5.1,2.1
		c-1.4,1.4-2.2,3.1-2.3,5v6.7h7.4v5.8h-7.4v33h-5.6v-33h-4.7v-5.8H453.3z"/>
	<path class="st0" d="M475.6,604.2v-6.7c0.1-3.6,1.4-6.6,3.9-9.1c2.5-2.5,5.5-3.8,9.1-3.8v5.8c-2,0-3.7,0.7-5.1,2.1
		c-1.4,1.4-2.2,3.1-2.3,5v6.7h7.4v5.8h-7.4v33h-5.6v-33h-4.7v-5.8H475.6z"/>
	<path class="st0" d="M512.1,603.7c5.3,0,9.8,2,13.6,5.8c3.8,3.9,5.7,8.6,5.7,14l-0.1,1.2h-32.8c0.3,3.6,1.8,6.7,4.3,9.1
		c2.6,2.5,5.7,3.7,9.3,3.7c2.6,0,5-0.7,7.1-2.1c2.1-1.3,3.8-3.1,4.9-5.4l5.2,2.3c-1.6,3.3-3.9,6-7,8c-3.1,2-6.5,3.1-10.3,3.1
		c-5.3,0-9.8-2-13.6-5.8c-3.8-3.9-5.7-8.6-5.7-14s1.9-10.1,5.7-14C502.3,605.7,506.8,603.7,512.1,603.7z M524.9,619
		c-0.9-2.8-2.6-5-4.8-6.8c-2.4-1.8-5-2.7-8-2.7s-5.6,0.9-8,2.7c-2.3,1.8-4,4-4.9,6.8H524.9z"/>
	<path class="st0" d="M556.7,603.7c5.3,0,9.8,2,13.6,5.8c3.8,3.9,5.7,8.6,5.7,14l-0.1,1.2h-32.8c0.3,3.6,1.8,6.7,4.3,9.1
		c2.6,2.5,5.7,3.7,9.3,3.7c2.6,0,5-0.7,7.1-2.1c2.1-1.3,3.8-3.1,4.9-5.4l5.2,2.3c-1.6,3.3-3.9,6-7,8c-3.1,2-6.5,3.1-10.3,3.1
		c-5.3,0-9.8-2-13.6-5.8c-3.8-3.9-5.7-8.6-5.7-14s1.9-10.1,5.7-14C546.9,605.7,551.4,603.7,556.7,603.7z M569.6,619
		c-0.9-2.8-2.6-5-4.8-6.8c-2.4-1.8-5-2.7-8-2.7c-3,0-5.6,0.9-8,2.7c-2.3,1.8-4,4-4.9,6.8H569.6z"/>
</g>
<g>
	<path class="st0" d="M397.7,458.5c0,1.9-0.3,3.8-0.8,5.5c-0.2,0.6-0.3,1.1-0.6,1.7l-7.1,9.3l0,0l-27.8,36.8L333.8,475l0,0l-6.9-9.3
		l0,0c-0.2-0.6-0.4-1.1-0.6-1.7c-0.5-1.8-0.8-3.6-0.8-5.5c0-11.2,8.8-20.3,19.6-20.3c6.9,0,12.8,3.6,16.4,9.1
		c3.5-5.5,9.6-9.1,16.4-9.1C388.8,438.2,397.7,447.4,397.7,458.5z"/>
	<path class="st0" d="M361.5,411.7c-15.5,0-29.5,6.5-39.6,17l-3.2-2.2c-4.2-2.8-9.8-1.6-12.6,2.6l-2.1,3.3c-2.8,4.3-1.6,10.1,2.6,13
		l3.2,2.1c-2.7,6.7-4.2,14-4.2,21.8c0,31.9,25.1,57.8,56,57.8c30.9,0,56-25.9,56-57.7C417.6,437.6,392.4,411.7,361.5,411.7z
		 M361.4,518.6c-26.3,0-47.7-22-47.7-49.2s21.3-49.2,47.7-49.2c26.3,0,47.7,22,47.7,49.2S387.8,518.6,361.4,518.6z"/>
</g>
</svg>