<?xml version="1.0" encoding="utf-8"?>
<!-- Generator: Adobe Illustrator 22.0.1, SVG Export Plug-In . SVG Version: 6.00 Build 0)  -->
<svg version="1.1" id="Capa_1" xmlns="http://www.w3.org/2000/svg" xmlns:xlink="http://www.w3.org/1999/xlink" x="0px" y="0px"
	 viewBox="0 0 720 720" style="enable-background:new 0 0 720 720;" xml:space="preserve">
<style type="text/css">
	.st0{fill:#1A1A1A;}
	.st1{fill:#333333;}
	.st2{fill:#FFFFFF;}
</style>
<g>
	<g>
		<path class="st0" d="M105.3,442.2h38.9v8.3H97v-75.8h8.3V442.2z"/>
		<path class="st0" d="M156.3,385.9c-1.1-1.1-1.6-2.3-1.6-3.8c0-1.5,0.5-2.8,1.6-3.9c1.1-1.1,2.3-1.6,3.8-1.6c1.5,0,2.8,0.5,3.9,1.6
			c1.1,1.1,1.6,2.3,1.6,3.9c0,1.5-0.5,2.7-1.6,3.8c-1.1,1.1-2.3,1.6-3.9,1.6C158.7,387.5,157.4,387,156.3,385.9z M156.1,396.4h8.1
			v54.2h-8.1V396.4z"/>
		<path class="st0" d="M179.4,372h8.1v78.6h-8.1V372z"/>
		<path class="st0" d="M202.4,385.9c-1.1-1.1-1.6-2.3-1.6-3.8c0-1.5,0.5-2.8,1.6-3.9c1.1-1.1,2.3-1.6,3.8-1.6c1.5,0,2.8,0.5,3.9,1.6
			c1.1,1.1,1.6,2.3,1.6,3.9c0,1.5-0.5,2.7-1.6,3.8c-1.1,1.1-2.3,1.6-3.9,1.6C204.7,387.5,203.5,387,202.4,385.9z M202.2,396.4h8.1
			v54.2h-8.1V396.4z"/>
		<path class="st0" d="M249.3,451.3c-7.6,0-14.2-2.7-19.6-8.1c-5.4-5.4-8.1-12-8.1-19.6c0-7.7,2.7-14.2,8.1-19.7
			c5.4-5.4,12-8.1,19.6-8.1c7.7,0,14.3,2.7,19.7,8.2v-7.5h8.1v54.1h-8.1v-7.5C263.6,448.6,257.1,451.3,249.3,451.3z M249.3,403.9
			c-5.4,0-10.1,1.9-13.9,5.8c-3.8,3.8-5.8,8.5-5.8,13.9s1.9,10.1,5.8,13.9c3.8,3.8,8.5,5.8,13.9,5.8c5.4,0,10.1-1.9,14-5.8
			c3.8-3.8,5.8-8.5,5.8-13.9s-1.9-10.1-5.8-13.9C259.4,405.8,254.8,403.9,249.3,403.9z"/>
		<path class="st0" d="M336.9,450.6h-8.1v-32.5c0-3.9-1.4-7.3-4.2-10c-2.7-2.8-6.1-4.2-10-4.2c-3.9,0-7.3,1.4-10,4.2
			c-2.8,2.8-4.2,6.1-4.2,10v32.5h-8.1v-54.1h8.1v4.4c4.1-3.4,8.9-5.1,14.2-5.1c6.1,0,11.4,2.2,15.7,6.6c4.4,4.3,6.6,9.6,6.6,15.7
			V450.6z"/>
	</g>
	<g>
		<path class="st0" d="M407.7,451.5c-6.2,0-11.9-1.5-17-4.4c-6.1-3.6-10.2-8.7-12.2-15.4l7.9-2.3c1.4,4.7,4.2,8.3,8.6,10.8
			c3.7,2.1,7.9,3.1,12.6,3.1c0.7,0,1.4,0,1.9-0.1c0.5,0,1.2-0.1,1.9-0.3c2.1-0.3,4-0.9,5.7-1.6c4.9-2.3,7.6-6.1,8-11.6
			c0.2-2.9-0.6-5.4-2.5-7.6c-3-3.5-7.7-5.4-14.3-5.8c-11-0.7-19-3.3-23.9-7.7c-3.7-3.3-5.6-7.6-5.6-12.9c0-7.1,2.8-12.8,8.4-17
			c5-3.9,11.2-5.8,18.3-5.8c8.5,0,15.6,3,21.3,9c1.8,1.9,3.4,4.1,4.7,6.4c0.4,0.7,1,1.8,1.6,3.2l-7.7,2.9c-0.5-1-1-2-1.6-3.1
			c-0.6-1.1-1.6-2.3-3-3.7c-4.1-4.3-9.2-6.5-15.3-6.5c-1.8,0-3.7,0.2-5.6,0.7c-2.3,0.5-4.3,1.3-6,2.3c-4.6,2.6-6.9,6.5-6.9,11.6
			c0,7.3,7.3,11.4,21.8,12.4c8.8,0.6,15.4,3.5,19.9,8.7c3.4,3.9,4.9,8.5,4.5,13.6c-0.6,6.9-3.5,12.2-8.8,16.1
			c-4.7,3.4-10.3,5.1-16.9,5.1H407.7z"/>
		<path class="st0" d="M491.1,450.2H483v-32.6c0-3.9-1.4-7.2-4.1-10c-2.8-2.8-6.1-4.2-10-4.2c-3.9,0-7.3,1.4-10,4.2
			c-2.7,2.7-4.1,6.1-4.1,10v32.6h-8.1v-78.6h8.1v29c4.1-3.4,8.8-5.1,14.2-5.1c6.1,0,11.4,2.2,15.7,6.5c4.3,4.4,6.5,9.6,6.5,15.7
			V450.2z"/>
		<path class="st0" d="M510.7,442.8c-5.4-5.4-8.1-12-8.1-19.7c0-7.6,2.7-14.2,8.1-19.6c5.4-5.4,12-8.1,19.7-8.1
			c7.6,0,14.2,2.7,19.6,8.1c5.4,5.4,8.1,12,8.1,19.6c0,7.7-2.7,14.2-8.1,19.7c-5.4,5.4-12,8.1-19.6,8.1
			C522.6,450.9,516.1,448.2,510.7,442.8z M516.4,409.2c-3.9,3.8-5.8,8.5-5.8,13.9c0,5.4,1.9,10.1,5.8,14c3.8,3.8,8.5,5.8,13.9,5.8
			c5.4,0,10.1-1.9,13.9-5.8c3.8-3.9,5.8-8.5,5.8-14c0-5.4-1.9-10.1-5.8-13.9c-3.8-3.8-8.5-5.8-13.9-5.8
			C524.9,403.5,520.3,405.4,516.4,409.2z"/>
		<path class="st0" d="M597.2,395.4c7.7,0,14.2,2.7,19.7,8.1c5.4,5.4,8.1,12,8.1,19.7c0,7.6-2.7,14.2-8.1,19.6
			c-5.4,5.4-12,8.1-19.7,8.1c-7.7,0-14.2-2.7-19.7-8.2v28.2h-8.1v-74.8h8.1v7.5C583,398.1,589.5,395.4,597.2,395.4z M597.2,442.8
			c5.4,0,10.1-1.9,14-5.8c3.8-3.8,5.8-8.5,5.8-13.9c0-5.4-1.9-10.1-5.8-14c-3.9-3.8-8.5-5.8-14-5.8s-10.1,1.9-13.9,5.8
			c-3.8,3.9-5.8,8.5-5.8,14c0,5.4,1.9,10.1,5.8,13.9C587.2,440.9,591.8,442.8,597.2,442.8z"/>
	</g>
</g>
<g>
	<path class="st0" d="M194.9,607.3c4,0,7.4,1.4,10.2,4.2c2.8,2.8,4.2,6.2,4.2,10.2c0,4-1.4,7.3-4.2,10.1c-2.8,2.8-6.2,4.2-10.2,4.2
		c-4,0-7.4-1.4-10.2-4.2v14.6h-4.2v-38.7h4.2v3.9C187.5,608.7,190.9,607.3,194.9,607.3z M194.9,631.8c2.8,0,5.2-1,7.2-3
		c2-2,3-4.4,3-7.2c0-2.8-1-5.2-3-7.2c-2-2-4.4-3-7.2-3c-2.8,0-5.2,1-7.2,3c-2,2-3,4.4-3,7.2c0,2.8,1,5.2,3,7.2
		C189.7,630.8,192.1,631.8,194.9,631.8z"/>
	<path class="st0" d="M227.2,607.3v4.2h-0.5c-2,0-3.7,0.7-5.2,2.2c-1.4,1.4-2.2,3.2-2.2,5.2v16.8h-4.2v-28h4.2v2.3
		c2.1-1.8,4.6-2.7,7.3-2.7H227.2z"/>
	<path class="st0" d="M234.4,631.8c-2.8-2.8-4.2-6.2-4.2-10.2c0-4,1.4-7.3,4.2-10.1c2.8-2.8,6.2-4.2,10.2-4.2c4,0,7.3,1.4,10.1,4.2
		c2.8,2.8,4.2,6.2,4.2,10.1c0,4-1.4,7.4-4.2,10.2c-2.8,2.8-6.2,4.2-10.1,4.2C240.6,636,237.2,634.6,234.4,631.8z M237.4,614.4
		c-2,2-3,4.4-3,7.2c0,2.8,1,5.2,3,7.2c2,2,4.4,3,7.2,3c2.8,0,5.2-1,7.2-3c2-2,3-4.4,3-7.2c0-2.8-1-5.2-3-7.2c-2-2-4.4-3-7.2-3
		C241.8,611.5,239.4,612.5,237.4,614.4z M251,593.2l3.4,2.4l-6.7,9.5l-3.4-2.4L251,593.2z"/>
	<path class="st0" d="M284.9,607.6l-9.6,13.7l10.1,14.3h-5.1l-7.5-10.7l-7.5,10.7h-5.1l10.1-14.3l-9.6-13.7h5.1l7,10l7.1-10H284.9z"
		/>
	<path class="st0" d="M289.9,602.2c-0.5-0.5-0.8-1.2-0.8-2c0-0.8,0.3-1.4,0.8-2c0.5-0.5,1.2-0.8,2-0.8c0.8,0,1.4,0.3,2,0.8
		c0.5,0.5,0.8,1.2,0.8,2c0,0.8-0.3,1.4-0.8,2c-0.5,0.5-1.2,0.8-2,0.8C291.1,603,290.5,602.7,289.9,602.2z M289.8,607.6h4.2v28h-4.2
		V607.6z"/>
	<path class="st0" d="M343.7,635.6h-4.2v-16.8c0-2-0.7-3.8-2.2-5.2c-1.4-1.4-3.1-2.2-5.2-2.2s-3.8,0.7-5.2,2.2
		c-1.4,1.4-2.1,3.1-2.2,5.2v16.8h-4.2v-16.8c0-2-0.7-3.8-2.1-5.2c-1.4-1.4-3.2-2.2-5.2-2.2c-2,0-3.8,0.7-5.2,2.2
		c-1.4,1.4-2.1,3.2-2.1,5.2v16.8h-4.2v-28h4.2v2.3c2.1-1.8,4.6-2.7,7.3-2.7c1.9,0,3.7,0.4,5.4,1.3c1.6,0.9,3,2.1,4,3.6
		c1.1-1.5,2.4-2.7,4-3.6c1.7-0.9,3.5-1.3,5.4-1.3c3.2,0,5.9,1.1,8.1,3.4c2.2,2.2,3.4,5,3.4,8.1V635.6z"/>
	<path class="st0" d="M363.9,636c-4,0-7.3-1.4-10.1-4.2c-2.8-2.8-4.2-6.2-4.2-10.1c0-4,1.4-7.4,4.2-10.2c2.8-2.8,6.2-4.2,10.1-4.2
		c4,0,7.4,1.4,10.2,4.2v-3.9h4.2v28h-4.2v-3.9C371.3,634.6,367.9,636,363.9,636z M363.9,611.5c-2.8,0-5.2,1-7.2,3c-2,2-3,4.4-3,7.2
		c0,2.8,1,5.2,3,7.2c2,2,4.4,3,7.2,3c2.8,0,5.2-1,7.2-3c2-2,3-4.4,3-7.2c0-2.8-1-5.2-3-7.2C369.1,612.5,366.7,611.5,363.9,611.5z"/>
	<path class="st0" d="M428.1,635.6h-4.2v-16.8c0-2-0.7-3.8-2.2-5.2c-1.4-1.4-3.1-2.2-5.2-2.2s-3.8,0.7-5.2,2.2
		c-1.4,1.4-2.1,3.1-2.2,5.2v16.8H405v-16.8c0-2-0.7-3.8-2.1-5.2c-1.4-1.4-3.2-2.2-5.2-2.2c-2,0-3.8,0.7-5.2,2.2
		c-1.4,1.4-2.1,3.2-2.1,5.2v16.8h-4.2v-28h4.2v2.3c2.1-1.8,4.6-2.7,7.3-2.7c1.9,0,3.7,0.4,5.4,1.3c1.6,0.9,3,2.1,4,3.6
		c1.1-1.5,2.4-2.7,4-3.6c1.7-0.9,3.5-1.3,5.4-1.3c3.2,0,5.9,1.1,8.1,3.4c2.2,2.2,3.4,5,3.4,8.1V635.6z"/>
	<path class="st0" d="M448.3,607.3c4,0,7.3,1.4,10.1,4.2c2.8,2.8,4.2,6.2,4.2,10.1l0,0.9h-24.5c0.2,2.6,1.3,4.8,3.3,6.6
		c1.9,1.8,4.2,2.7,6.9,2.7c1.9,0,3.7-0.5,5.3-1.5c1.6-1,2.8-2.3,3.7-3.9l3.9,1.7c-1.2,2.4-2.9,4.3-5.2,5.8c-2.3,1.5-4.9,2.2-7.7,2.2
		c-4,0-7.3-1.4-10.1-4.2c-2.8-2.8-4.2-6.2-4.2-10.2c0-4,1.4-7.3,4.2-10.1C441,608.7,444.4,607.3,448.3,607.3z M457.9,618.3
		c-0.7-2-1.9-3.7-3.6-4.9c-1.8-1.3-3.8-1.9-6-1.9c-2.2,0-4.2,0.6-6,1.9c-1.7,1.3-3,2.9-3.7,4.9H457.9z"/>
	<path class="st0" d="M491.6,635.6h-4.2v-16.8c0-2-0.7-3.8-2.2-5.2c-1.4-1.4-3.1-2.2-5.2-2.2s-3.8,0.7-5.2,2.2s-2.2,3.2-2.2,5.2
		v16.8h-4.2v-28h4.2v2.3c2.1-1.8,4.6-2.7,7.4-2.7c3.2,0,5.9,1.1,8.1,3.4c2.3,2.2,3.4,5,3.4,8.1V635.6z"/>
	<path class="st0" d="M498.8,602.6h4.2v5h4.9v4.2H503v14.7c0,1.4,0.5,2.5,1.4,3.5c1,1,2.1,1.4,3.5,1.4v4.2c-2.5,0-4.7-0.9-6.5-2.7
		c-1.8-1.8-2.7-3.9-2.7-6.5V602.6z"/>
	<path class="st0" d="M525.8,607.3c4,0,7.3,1.4,10.1,4.2c2.8,2.8,4.2,6.2,4.2,10.1l0,0.9h-24.5c0.2,2.6,1.3,4.8,3.3,6.6
		c1.9,1.8,4.2,2.7,6.9,2.7c1.9,0,3.7-0.5,5.3-1.5c1.6-1,2.8-2.3,3.7-3.9l3.9,1.7c-1.2,2.4-2.9,4.3-5.2,5.8c-2.3,1.5-4.9,2.2-7.7,2.2
		c-4,0-7.3-1.4-10.1-4.2c-2.8-2.8-4.2-6.2-4.2-10.2c0-4,1.4-7.3,4.2-10.1C518.4,608.7,521.8,607.3,525.8,607.3z M535.4,618.3
		c-0.7-2-1.9-3.7-3.6-4.9c-1.8-1.3-3.8-1.9-6-1.9c-2.2,0-4.2,0.6-6,1.9c-1.7,1.3-3,2.9-3.7,4.9H535.4z"/>
</g>
<g>
	<rect x="245.3" y="136" class="st1" width="240.7" height="163"/>
	<rect x="233.3" y="149" class="st0" width="240.7" height="163"/>
	<path class="st0" d="M353.7,78c-39.8,0-73,27.8-81.4,65h0c4.8,0,9.1-3,10.8-7.5c10.7-28.3,38.1-48.5,70.2-48.5s59.5,20.2,70.2,48.5
		c1.7,4.5,6,7.5,10.8,7.5h1C426.7,105.8,393.4,78,353.7,78z"/>
	<g>
		<path class="st2" d="M391.2,219.5c0,1.9-0.3,3.8-0.8,5.5c-0.2,0.6-0.3,1.1-0.6,1.7l-7.1,9.3l0,0l-27.8,36.8L327.3,236l0,0
			l-6.9-9.3l0,0c-0.2-0.6-0.4-1.1-0.6-1.7c-0.5-1.8-0.8-3.6-0.8-5.5c0-11.2,8.8-20.3,19.6-20.3c6.9,0,12.8,3.6,16.4,9.1
			c3.5-5.5,9.6-9.1,16.4-9.1C382.3,199.2,391.2,208.4,391.2,219.5z"/>
		<path class="st2" d="M355,172.7c-15.5,0-29.5,6.5-39.6,17l-3.2-2.2c-4.2-2.8-9.8-1.6-12.6,2.6l-2.1,3.3c-2.8,4.3-1.6,10.1,2.6,13
			l3.2,2.1c-2.7,6.7-4.2,14-4.2,21.8c0,31.9,25.1,57.8,56,57.8s56-25.9,56-57.7C411.1,198.6,385.9,172.7,355,172.7z M354.9,279.6
			c-26.3,0-47.7-22-47.7-49.2s21.3-49.2,47.7-49.2c26.3,0,47.7,22,47.7,49.2S381.3,279.6,354.9,279.6z"/>
	</g>
</g>
<g>
</g>
<g>
</g>
<g>
</g>
<g>
</g>
<g>
</g>
<g>
</g>
<g>
</g>
<g>
</g>
<g>
</g>
<g>
</g>
<g>
</g>
<g>
</g>
<g>
</g>
<g>
</g>
<g>
</g>
</svg>
